<?xml version="1.0" standalone="no"?><svg xmlns="http://www.w3.org/2000/svg" viewBox="0 0 1440 320"><path fill="#62CB93" fill-opacity="1" d="M0,288L30,288C60,288,120,288,180,288C240,288,300,288,360,261.3C420,235,480,181,540,133.3C600,85,660,43,720,32C780,21,840,43,900,58.7C960,75,1020,85,1080,80C1140,75,1200,53,1260,69.3C1320,85,1380,139,1410,165.3L1440,192L1440,320L1410,320C1380,320,1320,320,1260,320C1200,320,1140,320,1080,320C1020,320,960,320,900,320C840,320,780,320,720,320C660,320,600,320,540,320C480,320,420,320,360,320C300,320,240,320,180,320C120,320,60,320,30,320L0,320Z"></path></svg>